<svg width="268" height="268" viewBox="0 0 268 268" fill="none" xmlns="http://www.w3.org/2000/svg">
<rect width="268" height="268" rx="134" fill="#E74C3C"/>
<path d="M99.944 73.728H105.056V67.68H116.072V73.728H121.112V67.68H130.4V63.288H121.112V56.808H116.072V63.288H105.056V56.808H99.944V63.288H90.152V67.68H99.944V73.728ZM87.128 59.256H68.48V63.576H87.128V59.256ZM89.432 68.688H65.024V73.08H89.432V68.688ZM82.88 101.952V113.976H72.512V101.952H82.88ZM87.416 97.56H67.976V121.68H72.512V118.296H87.416V97.56ZM68.048 92.232H87.416V87.912H68.048V92.232ZM68.048 82.656H87.416V78.408H68.048V82.656ZM98.216 86.76V79.416H107.72V86.76H98.216ZM122.912 86.76H112.904V79.416H122.912V86.76ZM112.904 115.848V109.8H127.52V105.48H112.904V99.936H128.816V95.544H112.904V90.864H127.88V75.384H93.464V90.864H107.72V95.544H92.528V99.936H107.72V105.48H94.04V109.8H107.72V115.848H89.432V120.312H130.976V115.848H112.904ZM194.048 74.52H179.792V64.872H194.048V74.52ZM199.232 60.624H174.896V78.768H199.232V60.624ZM152.36 102.456H188.432V107.496H152.36V102.456ZM152.36 94.032H188.432V99H152.36V94.032ZM152.36 85.752H188.432V90.576H152.36V85.752ZM147.176 111.024H193.76V82.152H147.176V111.024ZM165.32 66.168C164.96 71.496 164.528 73.656 163.808 74.376C163.376 74.88 162.8 74.952 161.648 74.952C160.64 74.952 157.616 74.952 154.448 74.664C155.168 75.816 155.672 77.616 155.816 78.912C159.056 79.128 162.224 79.128 163.808 78.984C165.608 78.912 166.76 78.48 167.912 77.4C169.136 75.888 169.784 72.36 170.288 63.792C170.36 63.072 170.36 61.776 170.36 61.776H155.528C155.744 60.192 155.888 58.464 156.032 56.736H150.992C150.848 58.536 150.704 60.192 150.488 61.776H138.752V66.168H149.552C147.896 72.288 144.296 76.68 136.664 79.416C137.744 80.28 139.112 82.08 139.688 83.232C148.76 79.776 152.864 74.088 154.736 66.168H165.32ZM159.2 111.744C154.088 114.624 145.448 117.144 138.104 118.656C139.328 119.592 141.128 121.68 142.064 122.688C149.192 120.744 158.192 117.432 164.024 114.048L159.2 111.744ZM175.976 114.696C183.896 117.216 191.744 120.312 196.424 122.544L201.968 119.736C196.64 117.432 188.072 114.336 180.152 111.888L175.976 114.696ZM98.216 148.296H85.112V141.024H79.928V148.296H66.68V152.76H98.216V148.296ZM89.936 164.28C91.304 161.688 92.744 157.656 94.112 154.056L89.216 152.904C88.568 156 86.912 160.464 85.616 163.344L89.936 164.28ZM78.272 163.272C77.912 160.536 76.688 156.288 75.176 153.048L71 154.128C72.368 157.368 73.52 161.688 73.808 164.496L78.272 163.272ZM96.488 192.144C94.832 190.632 87.848 184.944 85.112 182.928V181.2H98.504V176.664H85.112V169.104H99.08V164.568H65.672V169.104H79.928V176.664H65.888V181.2H78.776C75.176 187.536 69.488 194.016 64.304 197.4C65.456 198.336 67.04 200.064 67.904 201.288C71.936 198.12 76.4 193.008 79.928 187.464V206.328H85.112V188.04C88.136 190.776 91.808 194.304 93.32 196.104L96.488 192.144ZM130.832 164.856H106.784V152.04C114.776 150.456 123.776 148.296 129.896 145.56L125.576 141.6C120.968 143.904 112.904 146.208 105.56 147.792L101.672 146.568V171.624C101.672 181.704 100.664 194.16 91.52 203.088C92.744 203.808 94.688 205.68 95.336 206.832C105.416 196.824 106.784 182.424 106.784 171.696V169.896H117.512V206.04H122.768V169.896H130.832V164.856ZM154.808 184.872V170.616H170.936V184.872H154.808ZM202.4 184.872H176.336V170.616H197.432V165.576H176.336V154.632H199.088V149.448H156.176C157.328 147 158.48 144.408 159.488 141.888L154.088 140.592C150.704 150.24 144.656 159.528 137.888 165.432C139.256 166.152 141.488 167.952 142.496 168.816C146.384 165.072 150.2 160.176 153.44 154.632H170.936V165.576H149.48V184.872H137.672V190.056H170.936V206.544H176.336V190.056H202.4V184.872Z" fill="white"/>
</svg>
